<mxfile host="Electron" modified="2025-03-15T12:55:44.394Z" agent="Mozilla/5.0 (Windows NT 10.0; Win64; x64) AppleWebKit/537.36 (KHTML, like Gecko) draw.io/21.6.8 Chrome/114.0.5735.289 Electron/25.5.0 Safari/537.36" etag="GsmkLiCBRbB4WvRc1HBw" version="21.6.8" type="device">
  <diagram name="Page-1" id="baFfhMriAgWYs-Ue_QEE">
    <mxGraphModel dx="2924" dy="2297" grid="1" gridSize="10" guides="1" tooltips="1" connect="1" arrows="1" fold="1" page="1" pageScale="1" pageWidth="850" pageHeight="1100" math="0" shadow="0">
      <root>
        <mxCell id="0" />
        <mxCell id="1" parent="0" />
        <mxCell id="qeofWkXyxUxeW2VtgWyz-39" value="" style="rounded=0;whiteSpace=wrap;html=1;" vertex="1" parent="1">
          <mxGeometry x="-290" y="-160" width="1990" height="1210" as="geometry" />
        </mxCell>
        <mxCell id="qeofWkXyxUxeW2VtgWyz-1" value="RequestState_Flow" style="whiteSpace=wrap;strokeWidth=2;verticalAlign=top;" vertex="1" parent="1">
          <mxGeometry x="20" y="520" width="475" height="361" as="geometry" />
        </mxCell>
        <mxCell id="qeofWkXyxUxeW2VtgWyz-2" value="Cloud Logging" style="whiteSpace=wrap;strokeWidth=2;" vertex="1" parent="1">
          <mxGeometry x="64" y="545" width="114" height="34" as="geometry" />
        </mxCell>
        <mxCell id="qeofWkXyxUxeW2VtgWyz-3" value="Redis Cache" style="whiteSpace=wrap;strokeWidth=2;" vertex="1" parent="1">
          <mxGeometry x="229" y="545" width="101" height="34" as="geometry" />
        </mxCell>
        <mxCell id="qeofWkXyxUxeW2VtgWyz-4" value="BigQuery" style="whiteSpace=wrap;strokeWidth=2;" vertex="1" parent="1">
          <mxGeometry x="380" y="545" width="80" height="34" as="geometry" />
        </mxCell>
        <mxCell id="qeofWkXyxUxeW2VtgWyz-5" value="Log Router" style="whiteSpace=wrap;strokeWidth=2;" vertex="1" parent="1">
          <mxGeometry x="75" y="629" width="93" height="34" as="geometry" />
        </mxCell>
        <mxCell id="qeofWkXyxUxeW2VtgWyz-6" value="Pub/Sub" style="whiteSpace=wrap;strokeWidth=2;" vertex="1" parent="1">
          <mxGeometry x="84" y="713" width="75" height="34" as="geometry" />
        </mxCell>
        <mxCell id="qeofWkXyxUxeW2VtgWyz-7" value="Real-Time Alerts" style="whiteSpace=wrap;strokeWidth=2;" vertex="1" parent="1">
          <mxGeometry x="55" y="822" width="133" height="34" as="geometry" />
        </mxCell>
        <mxCell id="qeofWkXyxUxeW2VtgWyz-8" value="Knowledgebase_Flow" style="whiteSpace=wrap;strokeWidth=2;verticalAlign=top;" vertex="1" parent="1">
          <mxGeometry x="515" y="520" width="785" height="360" as="geometry" />
        </mxCell>
        <mxCell id="qeofWkXyxUxeW2VtgWyz-9" value="VectorDB Search" style="whiteSpace=wrap;strokeWidth=2;" vertex="1" parent="1">
          <mxGeometry x="690" y="545" width="134" height="34" as="geometry" />
        </mxCell>
        <mxCell id="qeofWkXyxUxeW2VtgWyz-10" value="Knowledge Graph" style="whiteSpace=wrap;strokeWidth=2;" vertex="1" parent="1">
          <mxGeometry x="997" y="545" width="140" height="34" as="geometry" />
        </mxCell>
        <mxCell id="qeofWkXyxUxeW2VtgWyz-11" value="Milvus VectorDB" style="whiteSpace=wrap;strokeWidth=2;" vertex="1" parent="1">
          <mxGeometry x="692" y="629" width="130" height="34" as="geometry" />
        </mxCell>
        <mxCell id="qeofWkXyxUxeW2VtgWyz-12" value="Partition: MLOps_Code" style="whiteSpace=wrap;strokeWidth=2;" vertex="1" parent="1">
          <mxGeometry x="550" y="713" width="178" height="34" as="geometry" />
        </mxCell>
        <mxCell id="qeofWkXyxUxeW2VtgWyz-13" value="Partition: Documentation" style="whiteSpace=wrap;strokeWidth=2;" vertex="1" parent="1">
          <mxGeometry x="853" y="713" width="197" height="34" as="geometry" />
        </mxCell>
        <mxCell id="qeofWkXyxUxeW2VtgWyz-14" value="Code Relationships" style="whiteSpace=wrap;strokeWidth=2;" vertex="1" parent="1">
          <mxGeometry x="872" y="629" width="150" height="34" as="geometry" />
        </mxCell>
        <mxCell id="qeofWkXyxUxeW2VtgWyz-15" value="Service Dependencies" style="whiteSpace=wrap;strokeWidth=2;" vertex="1" parent="1">
          <mxGeometry x="1072" y="629" width="171" height="34" as="geometry" />
        </mxCell>
        <mxCell id="qeofWkXyxUxeW2VtgWyz-16" value="" style="whiteSpace=wrap;strokeWidth=2;verticalAlign=top;" vertex="1" parent="1">
          <mxGeometry x="51" y="104" width="1092" height="366" as="geometry" />
        </mxCell>
        <mxCell id="qeofWkXyxUxeW2VtgWyz-17" value="Query Type" style="rhombus;strokeWidth=2;whiteSpace=wrap;" vertex="1" parent="1">
          <mxGeometry x="713" y="213" width="129" height="129" as="geometry" />
        </mxCell>
        <mxCell id="qeofWkXyxUxeW2VtgWyz-18" value="AIPlatform Agent" style="whiteSpace=wrap;strokeWidth=2;" vertex="1" parent="1">
          <mxGeometry x="681" y="129" width="193" height="34" as="geometry" />
        </mxCell>
        <mxCell id="qeofWkXyxUxeW2VtgWyz-19" value="Knowledgebase Agent" style="whiteSpace=wrap;strokeWidth=2;" vertex="1" parent="1">
          <mxGeometry x="876" y="411" width="192" height="34" as="geometry" />
        </mxCell>
        <mxCell id="qeofWkXyxUxeW2VtgWyz-20" value="Operations / Cost Agent" style="whiteSpace=wrap;strokeWidth=2;" vertex="1" parent="1">
          <mxGeometry x="228" y="411" width="114" height="34" as="geometry" />
        </mxCell>
        <mxCell id="qeofWkXyxUxeW2VtgWyz-21" value="MLPlatform User Questions" style="whiteSpace=wrap;strokeWidth=2;" vertex="1" parent="1">
          <mxGeometry x="673" y="20" width="209" height="34" as="geometry" />
        </mxCell>
        <mxCell id="qeofWkXyxUxeW2VtgWyz-22" value="" style="curved=1;startArrow=none;endArrow=block;exitX=0.5004111842105263;exitY=1;entryX=0.5004452720207254;entryY=0;rounded=0;" edge="1" parent="1" source="qeofWkXyxUxeW2VtgWyz-21" target="qeofWkXyxUxeW2VtgWyz-18">
          <mxGeometry relative="1" as="geometry">
            <Array as="points" />
          </mxGeometry>
        </mxCell>
        <mxCell id="qeofWkXyxUxeW2VtgWyz-23" value="" style="curved=1;startArrow=none;endArrow=block;exitX=0.5004452720207254;exitY=1;entryX=0.5006661821705426;entryY=0;rounded=0;" edge="1" parent="1" source="qeofWkXyxUxeW2VtgWyz-18" target="qeofWkXyxUxeW2VtgWyz-17">
          <mxGeometry relative="1" as="geometry">
            <Array as="points" />
          </mxGeometry>
        </mxCell>
        <mxCell id="qeofWkXyxUxeW2VtgWyz-24" value="How? Questions" style="curved=1;startArrow=none;endArrow=block;exitX=1.0013323643410852;exitY=0.755402886150845;entryX=0.5017293294270834;entryY=0.00505514705882353;rounded=0;" edge="1" parent="1" source="qeofWkXyxUxeW2VtgWyz-17" target="qeofWkXyxUxeW2VtgWyz-19">
          <mxGeometry relative="1" as="geometry">
            <Array as="points">
              <mxPoint x="972" y="377" />
            </Array>
          </mxGeometry>
        </mxCell>
        <mxCell id="qeofWkXyxUxeW2VtgWyz-25" value="Status? cost ? token ? Questions" style="curved=1;startArrow=none;endArrow=block;exitX=0;exitY=0.6014950367371577;entryX=0.5050370065789473;entryY=0.00505514705882353;rounded=0;" edge="1" parent="1" source="qeofWkXyxUxeW2VtgWyz-17" target="qeofWkXyxUxeW2VtgWyz-20">
          <mxGeometry relative="1" as="geometry">
            <Array as="points">
              <mxPoint x="286" y="377" />
            </Array>
          </mxGeometry>
        </mxCell>
        <mxCell id="qeofWkXyxUxeW2VtgWyz-26" value="" style="curved=1;startArrow=none;endArrow=block;exitX=0.04802740187872049;exitY=1.0050551470588236;entryX=0.5008745335820896;entryY=0.00505514705882353;rounded=0;" edge="1" parent="1" source="qeofWkXyxUxeW2VtgWyz-19" target="qeofWkXyxUxeW2VtgWyz-9">
          <mxGeometry relative="1" as="geometry">
            <Array as="points">
              <mxPoint x="757" y="470" />
            </Array>
          </mxGeometry>
        </mxCell>
        <mxCell id="qeofWkXyxUxeW2VtgWyz-27" value="" style="curved=1;startArrow=none;endArrow=block;exitX=0.7017962743365574;exitY=1.0050551470588236;entryX=0.5016741071428571;entryY=0.00505514705882353;rounded=0;" edge="1" parent="1" source="qeofWkXyxUxeW2VtgWyz-19" target="qeofWkXyxUxeW2VtgWyz-10">
          <mxGeometry relative="1" as="geometry">
            <Array as="points">
              <mxPoint x="1067" y="470" />
            </Array>
          </mxGeometry>
        </mxCell>
        <mxCell id="qeofWkXyxUxeW2VtgWyz-28" value="" style="curved=1;startArrow=none;endArrow=block;exitX=0.5008745335820896;exitY=1.0050551470588236;entryX=0.5009014423076923;entryY=0.00505514705882353;rounded=0;" edge="1" parent="1" source="qeofWkXyxUxeW2VtgWyz-9" target="qeofWkXyxUxeW2VtgWyz-11">
          <mxGeometry relative="1" as="geometry">
            <Array as="points" />
          </mxGeometry>
        </mxCell>
        <mxCell id="qeofWkXyxUxeW2VtgWyz-29" value="" style="curved=1;startArrow=none;endArrow=block;exitX=0.1316291781135533;exitY=1.0050551470588236;entryX=0.49727879213483145;entryY=0.00505514705882353;rounded=0;" edge="1" parent="1" source="qeofWkXyxUxeW2VtgWyz-11" target="qeofWkXyxUxeW2VtgWyz-12">
          <mxGeometry relative="1" as="geometry">
            <Array as="points">
              <mxPoint x="639" y="688" />
            </Array>
          </mxGeometry>
        </mxCell>
        <mxCell id="qeofWkXyxUxeW2VtgWyz-30" value="" style="curved=1;startArrow=none;endArrow=block;exitX=0.9991586538461539;exitY=0.9180152506599584;entryX=0.49682741116751267;entryY=0.00505514705882353;rounded=0;" edge="1" parent="1" source="qeofWkXyxUxeW2VtgWyz-11" target="qeofWkXyxUxeW2VtgWyz-13">
          <mxGeometry relative="1" as="geometry">
            <Array as="points">
              <mxPoint x="951" y="688" />
            </Array>
          </mxGeometry>
        </mxCell>
        <mxCell id="qeofWkXyxUxeW2VtgWyz-31" value="" style="curved=1;startArrow=none;endArrow=block;exitX=0.1538318452380955;exitY=1.0050551470588236;entryX=0.49947916666666664;entryY=0.00505514705882353;rounded=0;" edge="1" parent="1" source="qeofWkXyxUxeW2VtgWyz-10" target="qeofWkXyxUxeW2VtgWyz-14">
          <mxGeometry relative="1" as="geometry">
            <Array as="points">
              <mxPoint x="947" y="604" />
            </Array>
          </mxGeometry>
        </mxCell>
        <mxCell id="qeofWkXyxUxeW2VtgWyz-32" value="" style="curved=1;startArrow=none;endArrow=block;exitX=0.7625445099914974;exitY=1.0050551470588236;entryX=0.49979440789473684;entryY=0.00505514705882353;rounded=0;" edge="1" parent="1" source="qeofWkXyxUxeW2VtgWyz-10" target="qeofWkXyxUxeW2VtgWyz-15">
          <mxGeometry relative="1" as="geometry">
            <Array as="points">
              <mxPoint x="1157" y="604" />
            </Array>
          </mxGeometry>
        </mxCell>
        <mxCell id="qeofWkXyxUxeW2VtgWyz-33" value="" style="curved=1;startArrow=none;endArrow=block;exitX=0.004146107456140351;exitY=0.9349246786074863;entryX=0.5042489035087719;entryY=0.00505514705882353;rounded=0;" edge="1" parent="1" source="qeofWkXyxUxeW2VtgWyz-20" target="qeofWkXyxUxeW2VtgWyz-2">
          <mxGeometry relative="1" as="geometry">
            <Array as="points">
              <mxPoint x="121" y="470" />
            </Array>
          </mxGeometry>
        </mxCell>
        <mxCell id="qeofWkXyxUxeW2VtgWyz-34" value="" style="curved=1;startArrow=none;endArrow=block;exitX=0.4820694313909776;exitY=1.0050551470588236;entryX=0.49609375;entryY=0.00505514705882353;rounded=0;" edge="1" parent="1" source="qeofWkXyxUxeW2VtgWyz-20" target="qeofWkXyxUxeW2VtgWyz-3">
          <mxGeometry relative="1" as="geometry">
            <Array as="points">
              <mxPoint x="279" y="470" />
            </Array>
          </mxGeometry>
        </mxCell>
        <mxCell id="qeofWkXyxUxeW2VtgWyz-35" value="" style="curved=1;startArrow=none;endArrow=block;exitX=0.9808375104427737;exitY=1.0050551470588236;entryX=0.494775390625;entryY=0.00505514705882353;rounded=0;" edge="1" parent="1" source="qeofWkXyxUxeW2VtgWyz-20" target="qeofWkXyxUxeW2VtgWyz-4">
          <mxGeometry relative="1" as="geometry">
            <Array as="points">
              <mxPoint x="420" y="470" />
            </Array>
          </mxGeometry>
        </mxCell>
        <mxCell id="qeofWkXyxUxeW2VtgWyz-36" value="" style="curved=1;startArrow=none;endArrow=block;exitX=0.5042489035087719;exitY=1.0050551470588236;entryX=0.4998319892473118;entryY=0.00505514705882353;rounded=0;" edge="1" parent="1" source="qeofWkXyxUxeW2VtgWyz-2" target="qeofWkXyxUxeW2VtgWyz-5">
          <mxGeometry relative="1" as="geometry">
            <Array as="points" />
          </mxGeometry>
        </mxCell>
        <mxCell id="qeofWkXyxUxeW2VtgWyz-37" value="" style="curved=1;startArrow=none;endArrow=block;exitX=0.4998319892473118;exitY=1.0050551470588236;entryX=0.4997916666666667;entryY=0.00505514705882353;rounded=0;" edge="1" parent="1" source="qeofWkXyxUxeW2VtgWyz-5" target="qeofWkXyxUxeW2VtgWyz-6">
          <mxGeometry relative="1" as="geometry">
            <Array as="points" />
          </mxGeometry>
        </mxCell>
        <mxCell id="qeofWkXyxUxeW2VtgWyz-38" value="" style="curved=1;startArrow=none;endArrow=block;exitX=0.4997916666666667;exitY=1.0050551470588236;entryX=0.49988251879699247;entryY=0.00505514705882353;rounded=0;" edge="1" parent="1" source="qeofWkXyxUxeW2VtgWyz-6" target="qeofWkXyxUxeW2VtgWyz-7">
          <mxGeometry relative="1" as="geometry">
            <Array as="points" />
          </mxGeometry>
        </mxCell>
      </root>
    </mxGraphModel>
  </diagram>
</mxfile>
